<svg width="16" height="15" viewBox="0 0 16 15" fill="none" xmlns="http://www.w3.org/2000/svg">
<path d="M5.48954 11.061H4.50635V9.42232H6.14501L6.30887 10.0368C6.43177 10.5694 6.02211 11.061 5.48954 11.061ZM13.519 12.29C13.519 12.29 8.68493 9.42232 6.14501 9.42232V3.68701C8.52107 3.68701 13.519 0.819351 13.519 0.819351V12.29Z" fill="#90CAF9"/>
<path d="M2.04833 8.603C3.17959 8.603 4.09665 7.68593 4.09665 6.55467C4.09665 5.42341 3.17959 4.50635 2.04833 4.50635C0.917067 4.50635 0 5.42341 0 6.55467C0 7.68593 0.917067 8.603 2.04833 8.603Z" fill="white"/>
<path d="M14.748 5.3257H13.519V7.78369H14.748C15.4444 7.78369 15.977 7.25113 15.977 6.55469C15.977 5.85826 15.4444 5.3257 14.748 5.3257ZM5.98113 14.4203C5.61243 14.6661 4.95697 14.9119 4.09667 14.9938C3.85087 15.0348 3.60507 14.8709 3.52314 14.5841L1.72061 8.97172C1.72061 8.97172 5.32567 6.43179 5.32567 9.42235C5.32567 11.6755 5.94016 12.8635 6.22693 13.3142C6.43176 13.6009 6.43176 13.9696 6.22693 14.2564C6.145 14.3383 6.06306 14.3793 5.98113 14.4203Z" fill="white"/>
<path d="M2.04833 9.42229H6.14499V3.68698H2.04833C1.5977 3.68698 1.229 4.05568 1.229 4.50631V8.60296C1.229 9.0536 1.5977 9.42229 2.04833 9.42229Z" fill="white"/>
<path d="M13.9286 13.1093C13.478 13.1093 13.1093 12.7406 13.1093 12.29V0.81933C13.1093 0.368699 13.478 0 13.9286 0C14.3793 0 14.748 0.368699 14.748 0.81933V12.29C14.748 12.7406 14.3793 13.1093 13.9286 13.1093Z" fill="#42A5F5"/>
</svg>
