<svg width="15" height="16" viewBox="0 0 15 16" fill="none" xmlns="http://www.w3.org/2000/svg">
<path d="M14.1817 6.42139L8.26064 13.6295M14.1092 5.46224C13.8539 3.92373 13.0563 2.52745 11.8607 1.52615C10.665 0.524837 9.15039 -0.015328 7.59096 0.00342494C3.95069 0.00342494 1 2.89017 1 6.45084C1 6.45084 1.8111 5.9515 2.35582 6.37417C2.38363 6.39556 2.41683 6.40882 2.45172 6.41247C2.48662 6.41612 2.52184 6.41003 2.55348 6.39486C2.97536 6.19283 3.43764 6.08935 3.90539 6.09224C4.37313 6.09514 4.8341 6.20433 5.25344 6.41158C5.27537 6.42371 5.29949 6.43137 5.32441 6.4341C5.34932 6.43683 5.37453 6.43459 5.39857 6.4275C5.81726 6.29855 7.94729 5.70899 9.82421 6.41821C9.85064 6.42814 9.87889 6.43233 9.90707 6.4305C9.93525 6.42867 9.96272 6.42086 9.98765 6.4076C10.4062 6.20246 10.8657 6.0947 11.3319 6.0924C11.798 6.09011 12.2586 6.19333 12.6791 6.39433C12.7114 6.40961 12.7472 6.41562 12.7827 6.41169C12.8182 6.40775 12.8519 6.39402 12.88 6.37204C13.4199 5.94964 14.1817 6.42139 14.1817 6.42139" stroke="white" stroke-width="0.5" stroke-linecap="round" stroke-linejoin="round"/>
<path d="M2.44843 6.41165C3.63311 -0.352837 7.59124 0.00323033 7.59124 0.00323033C7.59124 0.00323033 5.58405 0.197979 5.32668 6.4342L7.12559 13.078M9.90727 6.43022L7.88389 13.2525" stroke="white" stroke-width="0.5" stroke-linecap="round" stroke-linejoin="round"/>
<path d="M12.7855 6.41113C11.6011 -0.353354 7.59096 0.00324387 7.59096 0.00324387C7.59096 0.00324387 9.64989 0.194278 9.90726 6.43023M2.44868 6.43554L6.88997 13.2526M12.7855 6.4435L7.88388 13.2526M1 6.45093L6.51347 13.6293" stroke="white" stroke-width="0.5" stroke-linecap="round" stroke-linejoin="round"/>
<path d="M7.88416 13.2525H6.89025C6.68217 13.2525 6.51349 13.4212 6.51349 13.6293V14.6232C6.51349 14.8313 6.68217 15 6.89025 15H7.88416C8.09224 15 8.26092 14.8313 8.26092 14.6232V13.6293C8.26092 13.4212 8.09224 13.2525 7.88416 13.2525Z" stroke="white" stroke-width="2" stroke-linecap="round" stroke-linejoin="round"/>
</svg>
