<svg width="15" height="16" viewBox="0 0 15 16" fill="none" xmlns="http://www.w3.org/2000/svg">
<path fill-rule="evenodd" clip-rule="evenodd" d="M11.782 4.5319C11.8355 4.47852 11.8779 4.41513 11.9068 4.34536C11.9358 4.27559 11.9507 4.2008 11.9508 4.12525C11.9508 4.04971 11.936 3.9749 11.9071 3.9051C11.8782 3.83529 11.8359 3.77185 11.7825 3.7184C11.7291 3.66495 11.6658 3.62254 11.596 3.59359C11.5262 3.56464 11.4514 3.54972 11.3759 3.54967C11.3003 3.54962 11.2255 3.56446 11.1557 3.59332C11.0859 3.62219 11.0225 3.66452 10.969 3.7179L7.50002 7.1869L4.03202 3.7179C3.92408 3.60996 3.77768 3.54932 3.62502 3.54932C3.47237 3.54932 3.32597 3.60996 3.21802 3.7179C3.11008 3.82584 3.04944 3.97225 3.04944 4.1249C3.04944 4.27756 3.11008 4.42396 3.21802 4.5319L6.68702 7.9999L3.21802 11.4679C3.16458 11.5213 3.12218 11.5848 3.09325 11.6546C3.06433 11.7245 3.04944 11.7993 3.04944 11.8749C3.04944 11.9505 3.06433 12.0253 3.09325 12.0952C3.12218 12.165 3.16458 12.2285 3.21802 12.2819C3.32597 12.3898 3.47237 12.4505 3.62502 12.4505C3.70061 12.4505 3.77546 12.4356 3.84529 12.4067C3.91512 12.3777 3.97858 12.3353 4.03202 12.2819L7.50002 8.8129L10.969 12.2819C11.077 12.3897 11.2233 12.4502 11.3759 12.4501C11.5284 12.45 11.6747 12.3893 11.7825 12.2814C11.8903 12.1735 11.9508 12.0271 11.9508 11.8745C11.9507 11.722 11.89 11.5757 11.782 11.4679L8.31302 7.9999L11.782 4.5319Z" fill="white"/>
</svg>
