<svg width="23" height="22" viewBox="0 0 23 22" fill="none" xmlns="http://www.w3.org/2000/svg">
<path d="M21.2367 6.05864C20.9908 5.8529 20.692 5.72045 20.3744 5.67638C20.0568 5.63231 19.7332 5.67841 19.4406 5.80942L15.3843 7.61411L13.0039 3.33442C12.8552 3.06577 12.6374 2.84185 12.3729 2.68592C12.1084 2.52999 11.807 2.44775 11.5 2.44775C11.1929 2.44775 10.8915 2.52999 10.627 2.68592C10.3626 2.84185 10.1447 3.06577 9.99606 3.33442L7.61559 7.61411L3.55934 5.80942C3.26738 5.67618 2.94383 5.62778 2.62567 5.66975C2.3075 5.71172 2.00757 5.84236 1.76015 6.04675C1.51273 6.25114 1.32782 6.52102 1.22655 6.82554C1.12527 7.13006 1.11173 7.45694 1.18746 7.76879L3.37028 17.0844C3.46117 17.4624 3.67689 17.7986 3.98254 18.0388C4.2882 18.2789 4.66593 18.409 5.05465 18.4079C5.20897 18.4067 5.36233 18.3835 5.51012 18.3391C9.42778 17.2619 13.5636 17.2619 17.4812 18.3391C17.7042 18.4022 17.9376 18.4196 18.1674 18.3902C18.3972 18.3608 18.6188 18.2852 18.8186 18.168C19.0185 18.0508 19.1926 17.8944 19.3305 17.7082C19.4684 17.522 19.5673 17.3098 19.6211 17.0844L21.8125 7.76879C21.8865 7.45843 21.8717 7.1335 21.7699 6.8311C21.6681 6.52871 21.4833 6.26104 21.2367 6.05864ZM17.6961 16.2594C13.6326 15.2052 9.36733 15.2052 5.30387 16.2594L3.35309 7.97504L7.06559 9.62504C7.45804 9.80109 7.90241 9.82279 8.31014 9.68582C8.71788 9.54885 9.05902 9.26326 9.26559 8.88598L11.5 4.8727L13.7343 8.88598C13.9409 9.26326 14.282 9.54885 14.6898 9.68582C15.0975 9.82279 15.5419 9.80109 15.9343 9.62504L19.6468 7.97504L17.6961 16.2594ZM15.2726 13.3118C15.247 13.5647 15.128 13.7991 14.9389 13.9691C14.7499 14.1391 14.5042 14.2326 14.25 14.2313H14.1468C12.3869 14.0508 10.6131 14.0508 8.85309 14.2313C8.71867 14.2455 8.58276 14.233 8.45322 14.1944C8.32368 14.1558 8.20307 14.0919 8.09838 14.0064C7.9937 13.9209 7.907 13.8154 7.8433 13.6962C7.77961 13.577 7.74018 13.4463 7.72731 13.3118C7.71302 13.1769 7.72549 13.0405 7.764 12.9104C7.80251 12.7804 7.8663 12.6592 7.95171 12.5538C8.03713 12.4484 8.1425 12.3609 8.26178 12.2963C8.38106 12.2318 8.51191 12.1913 8.64684 12.1774C10.5438 11.9798 12.4561 11.9798 14.3531 12.1774C14.488 12.1913 14.6189 12.2318 14.7381 12.2963C14.8574 12.3609 14.9628 12.4484 15.0482 12.5538C15.1336 12.6592 15.1974 12.7804 15.2359 12.9104C15.2744 13.0405 15.2869 13.1769 15.2726 13.3118Z" fill="white"/>
</svg>
