<svg width="23" height="18" viewBox="0 0 23 18" fill="none" xmlns="http://www.w3.org/2000/svg">
<g clip-path="url(#clip0_40_3030)">
<path d="M18.8408 1.91783C17.4066 1.24678 15.8893 0.769967 14.3291 0.5C14.1347 0.851362 13.9076 1.32394 13.7511 1.69991C12.0688 1.44696 10.4021 1.44696 8.75076 1.69991C8.59425 1.32403 8.36206 0.851362 8.16592 0.5C6.60414 0.770091 5.08556 1.24812 3.65067 1.92134C0.795353 6.23618 0.0212981 10.4437 0.408283 14.5917C2.30212 16.006 4.13743 16.8651 5.94183 17.4273C6.39026 16.8106 6.78667 16.1577 7.12696 15.4754C6.4791 15.2287 5.85454 14.9248 5.26072 14.5671C5.41699 14.4513 5.56958 14.3306 5.71826 14.2052C9.31662 15.8882 13.2265 15.8882 16.7819 14.2052C16.9313 14.3297 17.0838 14.4504 17.2394 14.5671C16.6446 14.9257 16.0189 15.2303 15.3697 15.4772C15.712 16.1623 16.1077 16.8158 16.5549 17.429C18.361 16.8669 20.198 16.0078 22.0918 14.5917C22.546 9.7832 21.3161 5.61418 18.8408 1.91775V1.91783ZM7.61722 12.0408C6.537 12.0408 5.65112 11.0323 5.65112 9.8043C5.65112 8.57628 6.51812 7.56611 7.61722 7.56611C8.71641 7.56611 9.60221 8.57449 9.58333 9.8043C9.58504 11.0323 8.71641 12.0408 7.61722 12.0408ZM14.8829 12.0408C13.8027 12.0408 12.9169 11.0323 12.9169 9.8043C12.9169 8.57628 13.7838 7.56611 14.8829 7.56611C15.9821 7.56611 16.8679 8.57449 16.849 9.8043C16.849 11.0323 15.9821 12.0408 14.8829 12.0408Z" fill="#5865F2"/>
</g>
<defs>
<clipPath id="clip0_40_3030">
<rect width="21.8693" height="17" fill="white" transform="translate(0.315308 0.5)"/>
</clipPath>
</defs>
</svg>
