<svg width="12" height="16" viewBox="0 0 12 16" fill="none" xmlns="http://www.w3.org/2000/svg">
<path d="M12.0002 9.90833C12.0002 13.3942 9.11438 16.1971 5.62854 15.9891C2.04612 15.7754 -0.405965 12.3301 0.0557657 8.72886C0.335204 6.5385 1.3621 4.66015 2.47985 3.20295C2.67415 2.94866 2.87358 4.99501 3.07302 4.76986C3.27302 4.53843 5.1268 1.33031 5.7714 0.203414C5.79912 0.153709 5.83722 0.110553 5.8831 0.0768773C5.92898 0.0432016 5.98157 0.0197953 6.0373 0.00824833C6.09303 -0.00329863 6.15059 -0.00271576 6.20607 0.00995752C6.26155 0.0226308 6.31366 0.0470976 6.35885 0.0816956C7.65375 1.05887 12.0002 4.72929 12.0002 9.90833Z" fill="#FF6723"/>
<path d="M10.2858 11.3432C10.2858 13.653 8.27491 15.5096 5.8291 15.4256C3.18901 15.3365 1.37866 12.9204 1.7661 10.4317C2.32555 6.86361 5.98854 4.57095 5.98854 4.57095C5.98854 4.57095 10.2858 7.26076 10.2858 11.3432Z" fill="#FFB02E"/>
</svg>
