<svg width="83" height="83" viewBox="0 0 83 83" fill="none" xmlns="http://www.w3.org/2000/svg">
<circle cx="41.5" cy="41.5" r="41" stroke="white" stroke-dasharray="7 7"/>
<path d="M37.517 47.098V46.4943C37.5289 44.4228 37.7124 42.7715 38.0675 41.5405C38.4344 40.3094 38.9671 39.3151 39.6655 38.5575C40.3639 37.8 41.2043 37.1134 42.1868 36.4979C42.9207 36.0244 43.5777 35.5331 44.1577 35.0241C44.7377 34.5152 45.1993 33.9529 45.5426 33.3374C45.8859 32.71 46.0575 32.0116 46.0575 31.2422C46.0575 30.4254 45.8622 29.7093 45.4716 29.0938C45.081 28.4782 44.5542 28.0047 43.8913 27.6733C43.2403 27.3419 42.5182 27.1761 41.7251 27.1761C40.9557 27.1761 40.2277 27.3478 39.5412 27.6911C38.8546 28.0225 38.2924 28.5196 37.8544 29.1825C37.4164 29.8336 37.1797 30.6444 37.1442 31.6151H29.8999C29.959 29.2476 30.5272 27.2945 31.6044 25.7557C32.6816 24.205 34.108 23.0509 35.8835 22.2933C37.6591 21.5239 39.6181 21.1392 41.7607 21.1392C44.1162 21.1392 46.1996 21.5298 48.0107 22.3111C49.8217 23.0805 51.2422 24.1991 52.272 25.6669C53.3018 27.1347 53.8168 28.9044 53.8168 30.9759C53.8168 32.3608 53.5859 33.5919 53.1243 34.669C52.6745 35.7344 52.0412 36.6813 51.2244 37.5099C50.4077 38.3267 49.4429 39.0665 48.3303 39.7294C47.3951 40.2857 46.6257 40.8658 46.022 41.4695C45.4302 42.0732 44.9863 42.7715 44.6903 43.5646C44.4063 44.3577 44.2583 45.3343 44.2464 46.4943V47.098H37.517ZM41.0327 58.4616C39.849 58.4616 38.8369 58.0473 37.9964 57.2188C37.1679 56.3783 36.7595 55.3722 36.7713 54.2003C36.7595 53.0402 37.1679 52.0459 37.9964 51.2173C38.8369 50.3887 39.849 49.9744 41.0327 49.9744C42.1572 49.9744 43.1456 50.3887 43.9979 51.2173C44.8501 52.0459 45.2822 53.0402 45.294 54.2003C45.2822 54.9815 45.075 55.6977 44.6726 56.3487C44.282 56.9879 43.767 57.5028 43.1278 57.8935C42.4886 58.2723 41.7902 58.4616 41.0327 58.4616Z" fill="white"/>
</svg>
