<svg width="16" height="15" viewBox="0 0 16 15" fill="none" xmlns="http://www.w3.org/2000/svg">
<path d="M1.72548 10.2941C1.91758 10.2941 2.103 10.3646 2.24655 10.4923C2.39011 10.6199 2.48182 10.7958 2.5043 10.9866L2.50979 11.0784V13.4313H5.64704C5.84695 13.4316 6.03923 13.5081 6.18459 13.6453C6.32995 13.7826 6.41743 13.9701 6.42914 14.1697C6.44086 14.3692 6.37593 14.5657 6.24762 14.719C6.11932 14.8723 5.93732 14.9709 5.73881 14.9945L5.64704 15H2.50979C2.11404 15.0001 1.73287 14.8506 1.44269 14.5815C1.15251 14.3124 0.974765 13.9436 0.945084 13.549L0.941162 13.4313V11.0784C0.941162 10.8704 1.02379 10.6709 1.17088 10.5238C1.31797 10.3767 1.51746 10.2941 1.72548 10.2941ZM14.2745 10.2941C14.4825 10.2941 14.682 10.3767 14.8291 10.5238C14.9762 10.6709 15.0588 10.8704 15.0588 11.0784V13.4313C15.0588 13.8474 14.8935 14.2463 14.5994 14.5405C14.3052 14.8347 13.9062 15 13.4902 15H10.3529C10.1449 15 9.94542 14.9173 9.79833 14.7702C9.65125 14.6231 9.56861 14.4237 9.56861 14.2156C9.56861 14.0076 9.65125 13.8081 9.79833 13.661C9.94542 13.514 10.1449 13.4313 10.3529 13.4313H13.4902V11.0784C13.4902 10.8704 13.5728 10.6709 13.7199 10.5238C13.867 10.3767 14.0665 10.2941 14.2745 10.2941ZM14.2745 7.15682C14.4744 7.15704 14.6667 7.23359 14.812 7.37082C14.9574 7.50805 15.0449 7.69561 15.0566 7.89517C15.0683 8.09473 15.0034 8.29123 14.8751 8.44453C14.7468 8.59783 14.5648 8.69635 14.3663 8.71996L14.2745 8.72545H1.72548C1.52557 8.72522 1.33329 8.64868 1.18793 8.51145C1.04257 8.37422 0.955095 8.18666 0.94338 7.9871C0.931665 7.78754 0.996593 7.59103 1.1249 7.43773C1.25321 7.28444 1.4352 7.18592 1.63371 7.16231L1.72548 7.15682H14.2745ZM5.64704 0.882309C5.85506 0.882309 6.05455 0.964942 6.20164 1.11203C6.34873 1.25912 6.43136 1.45861 6.43136 1.66662C6.43136 1.87464 6.34873 2.07413 6.20164 2.22122C6.05455 2.3683 5.85506 2.45094 5.64704 2.45094H2.50979V4.80388C2.50979 5.01189 2.42716 5.21138 2.28007 5.35847C2.13298 5.50556 1.93349 5.58819 1.72548 5.58819C1.51746 5.58819 1.31797 5.50556 1.17088 5.35847C1.02379 5.21138 0.941162 5.01189 0.941162 4.80388V2.45094C0.941162 2.03491 1.10643 1.63592 1.4006 1.34175C1.69478 1.04757 2.09376 0.882309 2.50979 0.882309H5.64704ZM13.4902 0.882309C13.9062 0.882309 14.3052 1.04757 14.5994 1.34175C14.8935 1.63592 15.0588 2.03491 15.0588 2.45094V4.80388C15.0588 5.01189 14.9762 5.21138 14.8291 5.35847C14.682 5.50556 14.4825 5.58819 14.2745 5.58819C14.0665 5.58819 13.867 5.50556 13.7199 5.35847C13.5728 5.21138 13.4902 5.01189 13.4902 4.80388V2.45094H10.3529C10.1449 2.45094 9.94542 2.3683 9.79833 2.22122C9.65125 2.07413 9.56861 1.87464 9.56861 1.66662C9.56861 1.45861 9.65125 1.25912 9.79833 1.11203C9.94542 0.964942 10.1449 0.882309 10.3529 0.882309H13.4902Z" fill="white"/>
</svg>
