<svg width="18" height="19" viewBox="0 0 18 19" fill="none" xmlns="http://www.w3.org/2000/svg">
<path opacity="0.5" d="M16.1 18.0125L10.5 12.4125C9.99995 12.8125 9.42495 13.1292 8.77495 13.3625C8.12495 13.5959 7.43328 13.7125 6.69995 13.7125C4.88328 13.7125 3.34595 13.0835 2.08795 11.8255C0.829285 10.5669 0.199951 9.02919 0.199951 7.21252C0.199951 5.39586 0.829285 3.85819 2.08795 2.59952C3.34595 1.34152 4.88328 0.712524 6.69995 0.712524C8.51662 0.712524 10.0543 1.34152 11.313 2.59952C12.571 3.85819 13.2 5.39586 13.2 7.21252C13.2 7.94586 13.0833 8.63752 12.85 9.28752C12.6166 9.93752 12.3 10.5125 11.9 11.0125L17.525 16.6375C17.7083 16.8209 17.8 17.0459 17.8 17.3125C17.8 17.5792 17.7 17.8125 17.5 18.0125C17.3166 18.1959 17.0833 18.2875 16.8 18.2875C16.5166 18.2875 16.2833 18.1959 16.1 18.0125ZM6.69995 11.7125C7.94995 11.7125 9.01262 11.2752 9.88795 10.4005C10.7626 9.52519 11.2 8.46252 11.2 7.21252C11.2 5.96252 10.7626 4.89986 9.88795 4.02452C9.01262 3.14986 7.94995 2.71252 6.69995 2.71252C5.44995 2.71252 4.38728 3.14986 3.51195 4.02452C2.63728 4.89986 2.19995 5.96252 2.19995 7.21252C2.19995 8.46252 2.63728 9.52519 3.51195 10.4005C4.38728 11.2752 5.44995 11.7125 6.69995 11.7125Z" fill="white"/>
</svg>
