<svg width="17" height="20" viewBox="0 0 17 20" fill="none" xmlns="http://www.w3.org/2000/svg">
<path d="M8.5 19.9249H8.25C8.16667 19.9249 8.09167 19.9082 8.025 19.8749C5.84167 19.1916 4.04167 17.8372 2.625 15.8119C1.20833 13.7872 0.5 11.5499 0.5 9.0999V4.3749C0.5 3.95824 0.621 3.58324 0.863 3.2499C1.10433 2.91657 1.41667 2.6749 1.8 2.5249L7.8 0.274902C8.03333 0.191569 8.26667 0.149902 8.5 0.149902C8.73333 0.149902 8.96667 0.191569 9.2 0.274902L15.2 2.5249C15.5833 2.6749 15.896 2.91657 16.138 3.2499C16.3793 3.58324 16.5 3.95824 16.5 4.3749V9.0999C16.5 11.5499 15.7917 13.7872 14.375 15.8119C12.9583 17.8372 11.1583 19.1916 8.975 19.8749C8.89167 19.9082 8.73333 19.9249 8.5 19.9249Z" fill="white"/>
</svg>
