<svg width="23" height="24" viewBox="0 0 23 24" fill="none" xmlns="http://www.w3.org/2000/svg">
<g clip-path="url(#clip0_1_433)">
<path d="M11.5 0.5C8.4507 0.5 5.52359 1.71235 3.36914 3.86824C1.21246 6.02499 0.000597407 8.94995 0 12C0 15.0488 1.21289 17.9759 3.36914 20.1318C5.52359 22.2876 8.4507 23.5 11.5 23.5C14.5493 23.5 17.4764 22.2876 19.6309 20.1318C21.7871 17.9759 23 15.0488 23 12C23 8.95124 21.7871 6.02413 19.6309 3.86824C17.4764 1.71235 14.5493 0.5 11.5 0.5Z" fill="url(#paint0_linear_1_433)"/>
<path d="M5.20556 11.8785C8.55853 10.418 10.7938 9.45509 11.9115 8.98988C15.1063 7.66145 15.7694 7.43073 16.2024 7.42291C16.2977 7.42138 16.5097 7.44492 16.6481 7.55678C16.7631 7.65111 16.7954 7.77869 16.8116 7.86827C16.8259 7.95775 16.8457 8.1617 16.8295 8.3209C16.657 10.1393 15.9077 14.5521 15.5268 16.5889C15.3669 17.4506 15.0488 17.7396 14.7416 17.7678C14.0731 17.8292 13.5664 17.3265 12.9195 16.9026C11.9079 16.239 11.3365 15.8261 10.3536 15.1787C9.21798 14.4305 9.9547 14.0191 10.6016 13.3471C10.7705 13.1712 13.7138 10.4948 13.7695 10.252C13.7767 10.2216 13.7838 10.1084 13.7156 10.0488C13.6491 9.98894 13.5502 10.0094 13.4784 10.0256C13.3759 10.0486 11.7606 11.1174 8.62681 13.2318C8.1686 13.5469 7.75353 13.7006 7.37978 13.6925C6.97009 13.6837 6.17946 13.4603 5.59189 13.2695C4.87314 13.0354 4.29993 12.9116 4.35024 12.5139C4.3754 12.3069 4.6611 12.0951 5.20556 11.8785Z" fill="white"/>
</g>
<defs>
<linearGradient id="paint0_linear_1_433" x1="11.5" y1="0.5" x2="11.5" y2="23.5" gradientUnits="userSpaceOnUse">
<stop stop-color="#2AABEE"/>
<stop offset="1" stop-color="#229ED9"/>
</linearGradient>
<clipPath id="clip0_1_433">
<rect width="23" height="23" fill="white" transform="translate(0 0.5)"/>
</clipPath>
</defs>
</svg>
