<svg width="22" height="23" viewBox="0 0 22 23" fill="none" xmlns="http://www.w3.org/2000/svg">
<path d="M10.605 5.78202L10.835 3.41302C10.926 2.46102 11.815 1.81502 12.713 2.04702C14.064 2.39702 15.013 3.65202 15.013 5.09102V8.12602C15.013 8.80102 15.013 9.13902 15.159 9.38602C15.242 9.52702 15.356 9.64602 15.492 9.73102C15.732 9.88202 16.059 9.88202 16.712 9.88202H17.108C18.811 9.88202 19.662 9.88202 20.186 10.272C20.579 10.565 20.856 10.994 20.966 11.48C21.112 12.13 20.785 12.943 20.13 14.567L19.804 15.377C19.6149 15.8462 19.5376 16.3528 19.578 16.857C19.81 19.731 17.531 22.152 14.745 21.993L4.32103 21.394C3.18203 21.329 2.61303 21.296 2.09903 20.841C1.58403 20.386 1.48703 19.917 1.29403 18.98C0.883264 16.9866 0.902014 14.9286 1.34903 12.943C1.63203 11.695 2.82403 11.023 4.05503 11.183C7.31903 11.603 10.278 9.16402 10.605 5.78302V5.78202Z" stroke="white" stroke-width="2" stroke-linecap="round" stroke-linejoin="round"/>
</svg>
