<svg width="21" height="17" viewBox="0 0 21 17" fill="none" xmlns="http://www.w3.org/2000/svg">
<path d="M20.5242 2.25C19.7862 2.58542 18.9908 2.80583 18.1667 2.91125C19.01 2.40333 19.6617 1.59833 19.9683 0.630415C19.1729 1.10958 18.2912 1.445 17.3617 1.63667C16.6046 0.812499 15.5408 0.333332 14.3333 0.333332C12.0812 0.333332 10.2412 2.17333 10.2412 4.44458C10.2412 4.77042 10.2796 5.08667 10.3467 5.38375C6.935 5.21125 3.89708 3.5725 1.875 1.09042C1.52041 1.69417 1.31916 2.40333 1.31916 3.15083C1.31916 4.57875 2.03791 5.84375 3.14958 6.5625C2.46916 6.5625 1.83666 6.37083 1.28083 6.08333V6.11208C1.28083 8.10541 2.69916 9.77291 4.5775 10.1467C3.97444 10.3117 3.34134 10.3347 2.72791 10.2137C2.9882 11.0307 3.49797 11.7456 4.18555 12.2578C4.87314 12.7701 5.70397 13.054 6.56125 13.0696C5.10806 14.22 3.30674 14.8418 1.45333 14.8329C1.1275 14.8329 0.801663 14.8137 0.47583 14.7754C2.29666 15.9446 4.4625 16.625 6.78166 16.625C14.3333 16.625 18.4829 10.3575 18.4829 4.92375C18.4829 4.74167 18.4829 4.56916 18.4733 4.38708C19.2783 3.81208 19.9683 3.08375 20.5242 2.25Z" fill="#59B8E9"/>
</svg>
