<svg width="19" height="18" viewBox="0 0 19 18" fill="none" xmlns="http://www.w3.org/2000/svg">
<g clip-path="url(#clip0_40_3032)">
<path d="M17.6514 11.9229C18.3121 10.0303 18.3121 7.96966 17.6514 6.07705C17.6441 6.04021 17.6331 6.00424 17.6183 5.96971C16.9961 4.24372 15.8567 2.75165 14.3554 1.69699C12.8541 0.642334 11.0641 0.076416 9.22935 0.076416C7.39463 0.076416 5.60457 0.642334 4.10328 1.69699C2.60199 2.75165 1.46255 4.24372 0.840354 5.96971C0.825622 6.00424 0.814552 6.04021 0.807327 6.07705C0.146581 7.96966 0.146581 10.0303 0.807327 11.9229C0.814552 11.9598 0.825622 11.9957 0.840354 12.0303C1.46255 13.7562 2.60199 15.2483 4.10328 16.303C5.60457 17.3576 7.39463 17.9236 9.22935 17.9236C11.0641 17.9236 12.8541 17.3576 14.3554 16.303C15.8567 15.2483 16.9961 13.7562 17.6183 12.0303C17.6331 11.9957 17.6441 11.9598 17.6514 11.9229ZM7.59448 12.633H10.8642C10.4885 13.6227 9.93436 14.5351 9.22935 15.3248C8.52433 14.5351 7.9702 13.6227 7.59448 12.633ZM7.04953 10.6514C6.87338 9.55749 6.87338 8.44248 7.04953 7.34861H11.4092C11.5853 8.44248 11.5853 9.55749 11.4092 10.6514H7.04953ZM2.29357 8.99998C2.2959 8.44374 2.3624 7.88962 2.49173 7.34861H5.04311C4.97394 7.89639 4.93809 8.44786 4.93577 8.99998C4.93783 9.55212 4.97367 10.1036 5.04311 10.6514H2.49173C2.3624 10.1104 2.2959 9.55623 2.29357 8.99998ZM10.8642 5.36696H7.59448C7.9702 4.37726 8.52433 3.46491 9.22935 2.67521C9.93436 3.46491 10.4885 4.37726 10.8642 5.36696ZM13.4156 7.34861H15.967C16.2313 8.43366 16.2313 9.56631 15.967 10.6514H13.4156C13.485 10.1036 13.5209 9.55212 13.5229 8.99998C13.5206 8.44786 13.4848 7.89639 13.4156 7.34861ZM15.133 5.36696H12.978C12.6576 4.34172 12.1903 3.36831 11.5908 2.47705C13.0607 3.01859 14.3074 4.03575 15.133 5.36696ZM6.86788 2.47705C6.26837 3.36831 5.80113 4.34172 5.48072 5.36696H3.32568C4.15128 4.03575 5.39803 3.01859 6.86788 2.47705ZM3.32568 12.633H5.48072C5.80113 13.6582 6.26837 14.6317 6.86788 15.5229C5.39643 14.9842 4.14885 13.9663 3.32568 12.633ZM11.5908 15.5229C12.1903 14.6317 12.6576 13.6582 12.978 12.633H15.133C14.3098 13.9663 13.0623 14.9842 11.5908 15.5229Z" fill="white"/>
</g>
<defs>
<clipPath id="clip0_40_3032">
<rect width="17.9174" height="18" fill="white" transform="translate(0.29126)"/>
</clipPath>
</defs>
</svg>
