<svg width="21" height="20" viewBox="0 0 21 20" fill="none" xmlns="http://www.w3.org/2000/svg">
<path d="M14.6783 11.9167C14.755 11.2842 14.8125 10.6517 14.8125 10C14.8125 9.34833 14.755 8.71583 14.6783 8.08333H17.9175C18.0708 8.69667 18.1666 9.33875 18.1666 10C18.1666 10.6613 18.0708 11.3033 17.9175 11.9167M12.982 17.245C13.557 16.1812 13.9979 15.0312 14.3045 13.8333H17.1316C16.2032 15.4321 14.7302 16.6432 12.982 17.245ZM12.7425 11.9167H8.25746C8.16163 11.2842 8.10413 10.6517 8.10413 10C8.10413 9.34833 8.16163 8.70625 8.25746 8.08333H12.7425C12.8287 8.70625 12.8958 9.34833 12.8958 10C12.8958 10.6517 12.8287 11.2842 12.7425 11.9167ZM10.5 17.6283C9.70454 16.4783 9.06246 15.2037 8.66954 13.8333H12.3304C11.9375 15.2037 11.2954 16.4783 10.5 17.6283ZM6.66663 6.16667H3.86829C4.7872 4.56358 6.25914 3.35059 8.00829 2.755C7.43329 3.81875 7.00204 4.96875 6.66663 6.16667ZM3.86829 13.8333H6.66663C7.00204 15.0312 7.43329 16.1812 8.00829 17.245C6.26281 16.6428 4.79294 15.4316 3.86829 13.8333ZM3.08246 11.9167C2.92913 11.3033 2.83329 10.6613 2.83329 10C2.83329 9.33875 2.92913 8.69667 3.08246 8.08333H6.32163C6.24496 8.71583 6.18746 9.34833 6.18746 10C6.18746 10.6517 6.24496 11.2842 6.32163 11.9167M10.5 2.36208C11.2954 3.51208 11.9375 4.79625 12.3304 6.16667H8.66954C9.06246 4.79625 9.70454 3.51208 10.5 2.36208ZM17.1316 6.16667H14.3045C14.0046 4.97973 13.5605 3.83398 12.982 2.755C14.7454 3.35875 16.2116 4.57583 17.1316 6.16667ZM10.5 0.416666C5.20038 0.416666 0.916626 4.72917 0.916626 10C0.916626 12.5417 1.9263 14.9792 3.72352 16.7764C4.61341 17.6663 5.66987 18.3722 6.83258 18.8538C7.99528 19.3355 9.24146 19.5833 10.5 19.5833C13.0416 19.5833 15.4792 18.5737 17.2764 16.7764C19.0736 14.9792 20.0833 12.5417 20.0833 10C20.0833 8.7415 19.8354 7.49532 19.3538 6.33262C18.8722 5.16991 18.1663 4.11345 17.2764 3.22356C16.3865 2.33366 15.33 1.62776 14.1673 1.14615C13.0046 0.664546 11.7585 0.416666 10.5 0.416666Z" fill="#59B8E9"/>
</svg>
